<?xml version="1.0" encoding="UTF-8" standalone="no"?>
<!-- Created with Inkscape (http://www.inkscape.org/) -->

<svg
   xmlns:dc="http://purl.org/dc/elements/1.1/"
   xmlns:cc="http://creativecommons.org/ns#"
   xmlns:rdf="http://www.w3.org/1999/02/22-rdf-syntax-ns#"
   xmlns:svg="http://www.w3.org/2000/svg"
   xmlns="http://www.w3.org/2000/svg"
   xmlns:sodipodi="http://sodipodi.sourceforge.net/DTD/sodipodi-0.dtd"
   xmlns:inkscape="http://www.inkscape.org/namespaces/inkscape"
   width="210mm"
   height="297mm"
   viewBox="0 0 210 297"
   version="1.1"
   id="svg8"
   inkscape:version="0.92.2 (5c3e80d, 2017-08-06)"
   sodipodi:docname="logo-3-strokethick.svg"
   inkscape:export-filename="C:\Users\Duncan\Remote\firstmate\assets\logo-thick-300px.png"
   inkscape:export-xdpi="76.055489"
   inkscape:export-ydpi="76.055489">
  <defs
     id="defs2" />
  <sodipodi:namedview
     id="base"
     pagecolor="#ffffff"
     bordercolor="#666666"
     borderopacity="1.0"
     inkscape:pageopacity="0.0"
     inkscape:pageshadow="2"
     inkscape:zoom="1"
     inkscape:cx="112.70827"
     inkscape:cy="649.26933"
     inkscape:document-units="mm"
     inkscape:current-layer="layer1"
     showgrid="false"
     inkscape:window-width="1920"
     inkscape:window-height="1017"
     inkscape:window-x="-8"
     inkscape:window-y="-8"
     inkscape:window-maximized="1" />
  <metadata
     id="metadata5">
    <rdf:RDF>
      <cc:Work
         rdf:about="">
        <dc:format>image/svg+xml</dc:format>
        <dc:type
           rdf:resource="http://purl.org/dc/dcmitype/StillImage" />
        <dc:title></dc:title>
      </cc:Work>
    </rdf:RDF>
  </metadata>
  <g
     inkscape:label="Layer 1"
     inkscape:groupmode="layer"
     id="layer1">
    <rect
       style="fill:none;fill-opacity:1;stroke:#000000;stroke-width:0.69;stroke-linecap:round;stroke-linejoin:miter;stroke-miterlimit:4;stroke-dasharray:none;stroke-dashoffset:0;stroke-opacity:1"
       id="rect815"
       width="100"
       height="100"
       x="47.625"
       y="83.821426"
       ry="9.3544331" />
    <g
       id="g941"
       transform="matrix(1.4805041,0.28509642,-0.29735536,1.5441647,-11.489727,-96.122842)">
      <g
         transform="translate(14.2875,-2.2489584)"
         style="fill:#ffffff;fill-opacity:1"
         id="g836">
        <path
           inkscape:connector-curvature="0"
           id="path819"
           d="m 77.8125,110.30273 c -5.521282,0 -10.000003,4.47872 -10,10 2e-6,5.52128 4.478722,10 10,10 5.521278,0 9.999998,-4.47872 10,-10 3e-6,-5.52128 -4.478718,-10 -10,-10 z m 0,0.26563 c 5.378221,0 9.736331,4.35615 9.736328,9.73437 -2e-6,5.37822 -4.35811,9.73438 -9.736328,9.73438 -5.378218,0 -9.734373,-4.35616 -9.734375,-9.73438 -3e-6,-5.37822 4.356154,-9.73437 9.734375,-9.73437 z"
           style="color:#000000;font-style:normal;font-variant:normal;font-weight:normal;font-stretch:normal;font-size:medium;line-height:normal;font-family:sans-serif;font-variant-ligatures:normal;font-variant-position:normal;font-variant-caps:normal;font-variant-numeric:normal;font-variant-alternates:normal;font-feature-settings:normal;text-indent:0;text-align:start;text-decoration:none;text-decoration-line:none;text-decoration-style:solid;text-decoration-color:#000000;letter-spacing:normal;word-spacing:normal;text-transform:none;writing-mode:lr-tb;direction:ltr;text-orientation:mixed;dominant-baseline:auto;baseline-shift:baseline;text-anchor:start;white-space:normal;shape-padding:0;clip-rule:nonzero;display:inline;overflow:visible;visibility:visible;opacity:1;isolation:auto;mix-blend-mode:normal;color-interpolation:sRGB;color-interpolation-filters:linearRGB;solid-color:#000000;solid-opacity:1;vector-effect:none;fill:#010000;fill-opacity:1;fill-rule:nonzero;stroke:none;stroke-width:0.26471084;stroke-linecap:round;stroke-linejoin:miter;stroke-miterlimit:4;stroke-dasharray:none;stroke-dashoffset:0;stroke-opacity:1;color-rendering:auto;image-rendering:auto;shape-rendering:auto;text-rendering:auto;enable-background:accumulate" />
        <path
           inkscape:connector-curvature="0"
           id="path817"
           d="m 98.994141,105.48242 -0.126953,0.0215 c 0,0 -4.684585,0.82689 -11.900391,4.54101 -3.018059,1.55346 -6.482268,3.61262 -10.234375,6.32813 -6.357026,4.60076 -11.352017,8.89788 -14.681641,11.98437 -1.664811,1.54325 -2.912538,2.78463 -3.707031,3.60938 -0.397247,0.41237 -0.68066,0.72001 -0.847656,0.91211 -0.0835,0.096 -0.136213,0.15936 -0.167969,0.20703 -0.0079,0.0119 -0.01466,0.0214 -0.02344,0.043 -0.0022,0.005 -0.0036,0.0105 -0.0059,0.0195 -0.0023,0.009 -0.0039,0.0385 -0.0039,0.0391 2.1e-5,6.1e-4 0.02318,0.0738 0.02344,0.0742 2.59e-4,3.6e-4 0.07958,0.0526 0.08008,0.0527 3.59e-4,8e-5 0.02493,-2.3e-4 0.04102,0 l 8.837891,6.96289 34.896484,-23.62304 z m -0.207032,0.31641 2.093751,10.73437 -34.591798,23.41602 -8.65625,-6.82031 c 0.02337,-0.0285 0.02817,-0.0367 0.0625,-0.0762 0.161577,-0.18586 0.444656,-0.4921 0.839844,-0.90234 0.790377,-0.82047 2.033979,-2.05763 3.695313,-3.59766 3.322667,-3.08004 8.311244,-7.37136 14.658203,-11.96484 3.740932,-2.70742 7.192522,-4.75903 10.199219,-6.30664 7.04913,-3.62833 11.523512,-4.45063 11.699218,-4.48242 z"
           style="color:#000000;font-style:normal;font-variant:normal;font-weight:normal;font-stretch:normal;font-size:medium;line-height:normal;font-family:sans-serif;font-variant-ligatures:normal;font-variant-position:normal;font-variant-caps:normal;font-variant-numeric:normal;font-variant-alternates:normal;font-feature-settings:normal;text-indent:0;text-align:start;text-decoration:none;text-decoration-line:none;text-decoration-style:solid;text-decoration-color:#000000;letter-spacing:normal;word-spacing:normal;text-transform:none;writing-mode:lr-tb;direction:ltr;text-orientation:mixed;dominant-baseline:auto;baseline-shift:baseline;text-anchor:start;white-space:normal;shape-padding:0;clip-rule:nonzero;display:inline;overflow:visible;visibility:visible;opacity:1;isolation:auto;mix-blend-mode:normal;color-interpolation:sRGB;color-interpolation-filters:linearRGB;solid-color:#000000;solid-opacity:1;vector-effect:none;fill:#010000;fill-opacity:1;fill-rule:nonzero;stroke:none;stroke-width:0.26458332px;stroke-linecap:butt;stroke-linejoin:miter;stroke-miterlimit:4;stroke-dasharray:none;stroke-dashoffset:0;stroke-opacity:1;color-rendering:auto;image-rendering:auto;shape-rendering:auto;text-rendering:auto;enable-background:accumulate" />
        <path
           inkscape:connector-curvature="0"
           id="path827"
           d="m 68.439453,117.51367 c 0,0 -2.321305,2.06886 -4.203125,4.6875 -1.883271,2.62067 -6.886719,10.89453 -6.886719,10.89453 l 0.226563,0.13672 c 0,0 5.016309,-8.29048 6.875,-10.87695 1.860142,-2.58848 4.164062,-4.64453 4.164062,-4.64453 z"
           style="color:#000000;font-style:normal;font-variant:normal;font-weight:normal;font-stretch:normal;font-size:medium;line-height:normal;font-family:sans-serif;font-variant-ligatures:normal;font-variant-position:normal;font-variant-caps:normal;font-variant-numeric:normal;font-variant-alternates:normal;font-feature-settings:normal;text-indent:0;text-align:start;text-decoration:none;text-decoration-line:none;text-decoration-style:solid;text-decoration-color:#000000;letter-spacing:normal;word-spacing:normal;text-transform:none;writing-mode:lr-tb;direction:ltr;text-orientation:mixed;dominant-baseline:auto;baseline-shift:baseline;text-anchor:start;white-space:normal;shape-padding:0;clip-rule:nonzero;display:inline;overflow:visible;visibility:visible;opacity:1;isolation:auto;mix-blend-mode:normal;color-interpolation:sRGB;color-interpolation-filters:linearRGB;solid-color:#000000;solid-opacity:1;vector-effect:none;fill:#000000;fill-opacity:1;fill-rule:nonzero;stroke:#010000;stroke-width:0.58449974;stroke-linecap:butt;stroke-linejoin:miter;stroke-miterlimit:4;stroke-dasharray:none;stroke-dashoffset:0;stroke-opacity:1;color-rendering:auto;image-rendering:auto;shape-rendering:auto;text-rendering:auto;enable-background:accumulate" />
        <path
           inkscape:connector-curvature="0"
           id="path829"
           d="m 98.873047,105.50391 c 0,0 -7.251152,0.89306 -10.621094,1.71679 -3.368355,0.82335 -9.453125,3.125 -9.453125,3.125 l 0.09375,0.2461 c 0,0 6.092794,-2.30149 9.421875,-3.11524 3.327494,-0.81336 10.591797,-1.71094 10.591797,-1.71094 z"
           style="color:#000000;font-style:normal;font-variant:normal;font-weight:normal;font-stretch:normal;font-size:medium;line-height:normal;font-family:sans-serif;font-variant-ligatures:normal;font-variant-position:normal;font-variant-caps:normal;font-variant-numeric:normal;font-variant-alternates:normal;font-feature-settings:normal;text-indent:0;text-align:start;text-decoration:none;text-decoration-line:none;text-decoration-style:solid;text-decoration-color:#000000;letter-spacing:normal;word-spacing:normal;text-transform:none;writing-mode:lr-tb;direction:ltr;text-orientation:mixed;dominant-baseline:auto;baseline-shift:baseline;text-anchor:start;white-space:normal;shape-padding:0;clip-rule:nonzero;display:inline;overflow:visible;visibility:visible;opacity:1;isolation:auto;mix-blend-mode:normal;color-interpolation:sRGB;color-interpolation-filters:linearRGB;solid-color:#000000;solid-opacity:1;vector-effect:none;fill:#000000;fill-opacity:1;fill-rule:nonzero;stroke:#010000;stroke-width:0.45915702;stroke-linecap:butt;stroke-linejoin:miter;stroke-miterlimit:4;stroke-dasharray:none;stroke-dashoffset:0;stroke-opacity:1;color-rendering:auto;image-rendering:auto;shape-rendering:auto;text-rendering:auto;enable-background:accumulate" />
        <path
           transform="scale(0.26458333)"
           inkscape:connector-curvature="0"
           id="path861"
           d="m 258.35023,462.98835 c -0.20075,-0.49312 -0.48413,-3.40963 -0.62974,-6.48113 -0.31054,-6.5509 0.56736,-11.30665 3.13333,-16.97375 2.10067,-4.63945 3.57315,-6.75996 7.36649,-10.60842 5.73896,-5.82235 13.34213,-9.52942 21.74591,-10.60264 4.55871,-0.58218 8.45974,-0.26913 13.62545,1.09339 3.75049,0.98924 10,3.74983 10,4.41728 0,0.19473 -1.96875,1.54709 -4.375,3.00526 -11.70078,7.09058 -38.20347,26.47772 -49.68822,36.34771 -0.70534,0.60617 -0.86165,0.57994 -1.17822,-0.1977 z"
           style="fill:#ffffff;fill-opacity:1;stroke:#010000;stroke-width:2.81296257;stroke-linecap:round;stroke-linejoin:miter;stroke-miterlimit:4;stroke-dasharray:none;stroke-dashoffset:0;stroke-opacity:1" />
      </g>
      <g
         transform="translate(15.478125,7.4083316)"
         id="g868">
        <path
           style="fill:#ffffff;fill-opacity:1;stroke:#000000;stroke-width:0.71893468;stroke-linecap:butt;stroke-linejoin:miter;stroke-opacity:1;stroke-miterlimit:4;stroke-dasharray:none"
           d="m 56.442181,123.47162 8.735713,6.68613 34.512341,-23.28184 -2.00782,-11.029292 c 0,0 -12.96866,3.88909 -23.05486,11.601912 -10.086201,7.71281 -18.185374,16.02309 -18.185374,16.02309 z"
           id="path865"
           inkscape:connector-curvature="0"
           sodipodi:nodetypes="cccczc" />
      </g>
    </g>
    <g
       id="g946"
       transform="matrix(2.2395071,0,0,2.1067562,-105.24033,-166.65364)"
       style="fill:#3a7fff;fill-opacity:1">
      <path
         sodipodi:nodetypes="ccczc"
         inkscape:connector-curvature="0"
         id="path912"
         d="m 90.504084,146.76654 c 0,0 1.683599,4.15971 -1.08476,9.04171 l -7.870607,5.08968 c 0,0 2.495874,-6.61834 4.123175,-8.96405 1.627303,-2.34572 4.832192,-5.16734 4.832192,-5.16734 z"
         style="fill:#3a7fff;stroke:#000000;stroke-width:0.54094674;stroke-linecap:butt;stroke-linejoin:miter;stroke-opacity:1;fill-opacity:1;stroke-miterlimit:4;stroke-dasharray:none" />
      <path
         sodipodi:nodetypes="ccczc"
         inkscape:connector-curvature="0"
         id="path912-0"
         d="m 92.620752,146.76654 c 0,0 -1.815966,4.10366 0.794616,9.07182 l 7.703562,5.33914 c 0,0 -2.282627,-6.69488 -3.833965,-9.09151 -1.551339,-2.39663 -4.664213,-5.31945 -4.664213,-5.31945 z"
         style="fill:#3a7fff;stroke:#000000;stroke-width:0.54094674;stroke-linecap:butt;stroke-linejoin:miter;stroke-opacity:1;fill-opacity:1;stroke-miterlimit:4;stroke-dasharray:none" />
      <ellipse
         ry="3.5057292"
         rx="3.3734374"
         cy="145.98906"
         cx="91.215103"
         id="path910"
         style="fill:#3a7fff;fill-opacity:1;stroke:#010000;stroke-width:0.51240316;stroke-linecap:round;stroke-linejoin:miter;stroke-miterlimit:4;stroke-dasharray:none;stroke-dashoffset:0;stroke-opacity:1" />
    </g>
  </g>
</svg>
